<svg xmlns="http://www.w3.org/2000/svg" viewBox="0 0 101.47 149.57"><defs><style>.cls-1{fill:#fff;}</style></defs><g id="レイヤー_2" data-name="レイヤー 2"><g id="レイヤー_1-2" data-name="レイヤー 1"><path class="cls-1" d="M95.9,59.66c-2.58-3.95-5.59-4.77-7.66-4.77a10.83,10.83,0,0,0-6.41,2c-.77-4.39-2.09-8.3-4.27-10.62a8.26,8.26,0,0,0-6.31-2.73c-3.72.1-6.57,2.19-8.75,5.23a20.63,20.63,0,0,0-4.32-9,10.56,10.56,0,0,0-8-3.62,10.81,10.81,0,0,0-6.65,2.25V13a14.22,14.22,0,0,0-3.61-9.57A12,12,0,0,0,31.05,0c-9.84,0-13.13,8.8-13.5,13.45,0,.11,0,.21,0,.32V78.2a8.35,8.35,0,0,0-5-2.19c-6.25-.35-9.34,7-10.35,9.49C-8.4,110.91,22.68,144.33,24,145.74a4.07,4.07,0,0,0,5.93-5.58c-8-8.54-27.34-34.44-20.22-51.53a13.23,13.23,0,0,1,2.51-4.33c1.54,1.21,4.08,6.25,5.48,11a4.07,4.07,0,0,0,8-1.14V14c.11-1,.85-5.82,5.37-5.82a3.85,3.85,0,0,1,3,1,6.1,6.1,0,0,1,1.33,3.77V62.54a94.2,94.2,0,0,0,0,9.95,4.07,4.07,0,0,0,8.13-.26V62.41c.39-6.83,1.65-14,4.4-16.95a2.86,2.86,0,0,1,2.25-1.07,2.4,2.4,0,0,1,1.94,1C54.2,47.61,56.88,56.49,55.8,71c-.11,1-.18,1.9-.22,2.48a4.07,4.07,0,0,0,8.12.68c0-.08.06-.7.14-1.73.93-9.85,4.28-20.62,7.59-20.72,1.94,1,3.45,9.68,3.24,20.82a56.07,56.07,0,0,0-.46,8.51,4.07,4.07,0,0,0,8.13.23c.12-1.35.35-4.32.44-8,.53-3.75,1.56-7.47,3.31-9.28a2.76,2.76,0,0,1,2-.95c.21.14,1.12.85,2.19,3.56,7.75,19.75,0,58.23-8.36,77.28a4.06,4.06,0,0,0,2.09,5.36,4.11,4.11,0,0,0,1.63.34,4.06,4.06,0,0,0,3.73-2.44A150.69,150.69,0,0,0,101.3,95.51C102.11,79.47,100.09,66.06,95.9,59.66Z"/></g></g></svg>