<svg xmlns="http://www.w3.org/2000/svg" viewBox="0 0 91.88 91.88"><defs><style>.cls-1{fill:#fff;}</style></defs><g id="レイヤー_2" data-name="レイヤー 2"><g id="レイヤー_1-2" data-name="レイヤー 1"><path class="cls-1" d="M31.19,23.12a4.07,4.07,0,0,0,5.71-.73l5-6.41V32.92H50V16l5,6.41a4.07,4.07,0,1,0,6.44-5L49.16,1.58a4.07,4.07,0,0,0-6.44,0L30.46,17.41A4.08,4.08,0,0,0,31.19,23.12Z"/><path class="cls-1" d="M60.68,68.76a4.07,4.07,0,0,0-5.71.73L50,75.9V59H41.87V75.9l-5-6.41a4.07,4.07,0,1,0-6.44,5L42.72,90.3a4.07,4.07,0,0,0,6.44,0L61.41,74.47A4.06,4.06,0,0,0,60.68,68.76Z"/><path class="cls-1" d="M91.88,45.94a4.09,4.09,0,0,0-1.58-3.22L74.47,30.47a4.07,4.07,0,1,0-5,6.43l6.41,5H59V50H75.9l-6.41,5A4.07,4.07,0,0,0,72,62.26a4,4,0,0,0,2.49-.85L90.3,49.16A4.09,4.09,0,0,0,91.88,45.94Z"/><path class="cls-1" d="M22.39,55,16,50H32.92V41.87H16l6.41-5a4.07,4.07,0,1,0-5-6.43L1.58,42.72a4.07,4.07,0,0,0,0,6.44L17.41,61.41a4,4,0,0,0,2.49.85A4.07,4.07,0,0,0,22.39,55Z"/></g></g></svg>