<svg xmlns="http://www.w3.org/2000/svg" viewBox="0 0 318.13 312.78">
  <defs>
    <style>.cls-1{fill:#171717;}</style>
  </defs>
  <g>
    <g >
      <path class="cls-1"
            d="M305,139.18c-8.79-15.76-21.45-29.53-36.86-40.83A111.78,111.78,0,0,0,245.2,73.18a129.16,129.16,0,0,0-12.74-9.11,91.33,91.33,0,0,0-78-43.84c-14.19,0-14.48-3.54-25.53-11.41C121.37,3.44,108.32-3.4,99.57,1.93c5.28,6.68,8.79,14.79,8.42,23.43v.07c-.56,12.52-5.32,9.85-14.47,18-5.82,5.2-11.13,16.83-17.15,20.6a127.21,127.21,0,0,0-12.75,9.11,107.52,107.52,0,0,0-31.11,40.28,121.22,121.22,0,0,0-19.37,25.72,100.11,100.11,0,0,0,0,99.16c12.6,22.58,33.13,41.12,58.37,54.07s55.32,20.37,87.56,20.37c43,0,82.11-13.15,111.1-35.13,14.48-11,26.44-24.26,34.82-39.31a100.11,100.11,0,0,0,0-99.16ZM88,111.61c0-1.63.08-3.24.2-4.84,1.87-26,23.13-61.18,48.52-34,17.88,19.16,32.25,73.8,1.3,87.72-28.67,12.89-50-24.42-50-48.87ZM281.56,225.29c-9.51,17.12-25.92,32.36-47.18,43.26S187.17,286,159.07,286c-37.47,0-71.16-11.61-94.89-29.67-11.87-9-21.25-19.58-27.6-31-3.35-6-9.42-16.89-8.55-24.08,2.64-21.69,16.21,4.36,21.52,9.51S73.13,235,82.05,230.27s-2.6-11.77-6.59-15.69c-15.22-14.94-28.08-43.24-28.07-64.45A68.85,68.85,0,0,1,49.09,135a75,75,0,0,1,14.16-29.37c-.13,2-.21,4-.21,6a90.8,90.8,0,0,0,.56,10.08c3.4,30.94,23.66,63.05,56.8,65.15,35.1,2.23,61.67-32.64,61.74-66.45a156.74,156.74,0,0,0-2.42-27.65,144,144,0,0,0-7.41-26.58l-.4-1c-.7-1.77-1.43-3.54-2.21-5.31a140.51,140.51,0,0,0-7.23-14.11,66.11,66.11,0,0,1,38.88,19,69.55,69.55,0,0,1,5,5.61c24.28,30.46,10.94,61.52,4.71,95-4.91,26.34,18.58.37,23.16-9.12,5.82-12.08,10.94-27.14,11.5-40.68.05-1.28.09-2.57.09-3.86,0-2-.08-4-.2-6a78.74,78.74,0,0,1,10.08,17,69.33,69.33,0,0,1,5.77,27.57c0,22.78-11.24,43.69-30.5,59.46s-46.34,25.72-76.53,25.71c-5.91,0-29.44-5.34-32.07,2.06-3.58,10.07,23.4,15.45,29.53,16.82,32.84,7.34,67.88-6.41,93.33-27.1,11.95-9.7,23.69-22.86,29.89-37.09,2.83-6.48,7.55-24.24,16-15.42C299.87,183.78,286.31,216.75,281.56,225.29Z"/>
    </g>
  </g>
</svg>
